# xmcd
#
# Track frame offsets:
#	150
#	12457
#	22502
#	35742
#	49140
#	59705
#	68317
#	76480
#	86165
#	95520
#	114592
#	137892
#	147967
#	162197
#	176760
#	189370
#	205662
#	220192
#	232377
#	244967
#
# Disc length: 3391 seconds
#
# Revision: 1
# Processed by: cddbd v1.5.1PL0 Copyright (c) Steve Scherf et al.
# Submitted via: audiograbber 1.80
#
DISCID=1f0d3d14
DTITLE=Various Artist - The Very Best Country Hits
DYEAR=1900
DGENRE=
TTITLE0=Bobby Bare - 500 Miles Away From Home
TTITLE1=George Hamilton IV - Abilene
TTITLE2=Kenny Rogers - Ruby, Don't Take Your Love To Town
TTITLE3=Dolly Parton - Joshua
TTITLE4=Jim Reeves - He'll Have To Go
TTITLE5=Skeeter Davis, Bobby Bare - A Dear John Letter
TTITLE6=Johny Cash - Guess Things Happen That Way
TTITLE7=Willie Nelson - Blackjack County Chain
TTITLE8=George Jones - The Race Is On
TTITLE9=Ronnie Milsap - Lost In The Fifties Tonight
TTITLE10=Waylon Jennings - MacArthur Park
TTITLE11=Charley Pride - Is Anybody Goin' To San Antone
TTITLE12=Glen Campbell - Rhinestone Cowboy
TTITLE13=Jeannie C. Riley - Harper Valley P.T.A.
TTITLE14=Dottie West - Would You Hold It Against Me
TTITLE15=Alabama - Feels So Right
TTITLE16=Loretta Lynn - Coal Miner's Daughter
TTITLE17=Dave and Sugar - The Door Is Always Open
TTITLE18=Leroy Van Dyke - The Auctioneer
TTITLE19=Dave Dudley - Six Days On The Road
EXTD=
EXTT0=
EXTT1=
EXTT2=
EXTT3=
EXTT4=
EXTT5=
EXTT6=
EXTT7=
EXTT8=
EXTT9=
EXTT10=
EXTT11=
EXTT12=
EXTT13=
EXTT14=
EXTT15=
EXTT16=
EXTT17=
EXTT18=
EXTT19=
PLAYORDER=
